<?xml version="1.0" standalone="no"?>
<!DOCTYPE svg PUBLIC "-//W3C//DTD SVG 20010904//EN"
 "http://www.w3.org/TR/2001/REC-SVG-20010904/DTD/svg10.dtd">
<svg version="1.0" xmlns="http://www.w3.org/2000/svg"
 width="650.000000pt" height="642.000000pt" viewBox="0 0 650.000000 642.000000"
 preserveAspectRatio="xMidYMid meet">
<metadata>
Created by potrace 1.16, written by Peter Selinger 2001-2019
</metadata>
<g transform="translate(0.000000,642.000000) scale(0.100000,-0.100000)"
fill="#fab055" stroke="#fab055">
<path d="M658 6281 c-195 -64 -320 -237 -319 -441 0 -180 99 -339 256 -413
l55 -27 0 -642 c0 -354 5 -684 10 -735 25 -234 140 -360 350 -383 152 -17 624
-32 628 -20 2 6 20 -4 40 -21 157 -138 390 -72 448 128 48 166 -86 343 -261
343 -93 0 -190 -58 -241 -146 l-26 -44 -141 6 c-197 7 -438 23 -464 30 -33 9
-52 46 -63 121 -5 39 -10 345 -10 714 l0 646 39 12 c64 19 157 87 205 152 178
237 97 569 -171 697 -72 34 -86 37 -178 39 -77 2 -113 -1 -157 -16z m218 -270
c49 -23 88 -70 103 -128 36 -132 -94 -259 -227 -224 -136 37 -188 204 -94 305
59 62 144 81 218 47z"/>
<path d="M5670 6169 c-151 -30 -287 -151 -340 -305 -23 -66 -28 -203 -10 -264
5 -19 10 -40 10 -46 0 -12 -200 -198 -511 -474 -329 -293 -298 -280 -670 -283
l-269 -2 -11 26 c-15 37 -83 104 -127 125 -46 22 -144 30 -199 15 -60 -16
-121 -67 -157 -131 -27 -48 -31 -65 -31 -130 0 -65 4 -83 30 -129 49 -90 134
-139 240 -140 95 -1 174 44 239 139 l18 25 -7 -32 -6 -32 178 -3 c382 -6 488
8 627 86 81 45 328 259 732 632 l99 92 40 -24 c89 -52 228 -68 340 -38 123 31
234 123 290 238 169 345 -127 729 -505 655z m177 -280 c86 -41 125 -131 99
-222 -54 -187 -322 -179 -364 11 -35 155 122 280 265 211z"/>
<path d="M3991 6064 c-127 -34 -252 -136 -310 -255 l-32 -66 -307 -6 c-280 -4
-313 -7 -376 -27 -57 -18 -79 -32 -126 -79 -87 -86 -104 -158 -116 -492 -6
-150 -5 -182 7 -190 10 -6 10 -9 2 -9 -7 0 -32 -17 -55 -37 -139 -127 -110
-359 57 -445 56 -29 149 -35 215 -13 96 32 169 128 178 233 9 102 -38 197
-125 252 -26 17 -40 30 -32 30 14 0 17 27 23 178 8 201 17 287 35 305 18 18
134 26 384 26 208 1 228 0 233 -16 26 -79 79 -166 137 -220 101 -95 199 -133
338 -133 148 0 255 46 357 154 220 232 158 615 -125 769 -102 55 -248 72 -362
41z m200 -265 c87 -27 149 -113 149 -207 0 -131 -91 -222 -220 -222 -129 0
-220 91 -220 222 0 150 142 251 291 207z"/>
<path d="M5680 4293 c-48 -7 -145 -46 -185 -73 -85 -58 -154 -151 -188 -252
-6 -17 -28 -18 -273 -18 l-267 0 -47 44 c-49 46 -122 76 -185 76 -57 0 -131
-29 -177 -70 -171 -150 -98 -420 126 -470 97 -21 221 29 275 113 l24 37 267 0
268 0 13 -32 c7 -17 27 -52 44 -77 l32 -46 -106 0 c-102 0 -109 -1 -185 -38
-93 -44 -178 -126 -215 -205 l-24 -52 -48 0 c-44 0 -51 4 -102 54 -56 56 -122
86 -192 86 -96 0 -203 -68 -246 -157 -31 -66 -32 -171 -1 -229 34 -66 69 -101
129 -130 110 -54 242 -28 322 62 34 39 44 44 80 44 31 0 43 -5 47 -17 55 -169
199 -295 371 -325 145 -24 323 30 412 128 140 150 159 419 43 580 -16 22 -31
44 -34 49 -4 6 32 10 100 10 103 0 110 1 185 37 287 137 355 496 139 729 -100
108 -260 165 -402 142z m123 -274 c86 -24 146 -116 133 -206 -19 -137 -171
-208 -288 -134 -132 84 -109 284 39 336 47 17 67 18 116 4z m-391 -789 c62
-42 83 -84 83 -164 -1 -114 -47 -170 -153 -183 -167 -19 -280 158 -190 295 54
81 181 107 260 52z"/>
<path d="M2417 4173 c-4 -3 -7 -500 -7 -1103 0 -839 3 -1099 12 -1108 9 -9
195 -12 778 -12 421 0 771 4 778 8 10 7 12 236 10 1113 l-3 1104 -781 3 c-429
1 -784 -1 -787 -5z m863 -406 c30 -8 68 -21 85 -29 28 -15 34 -14 108 13 92
34 130 36 157 9 43 -43 10 -107 -68 -130 l-40 -12 28 -42 c50 -76 65 -132 64
-241 0 -116 -20 -179 -82 -260 -76 -101 -187 -162 -314 -172 l-68 -6 0 -118 0
-119 123 0 c131 0 163 -9 183 -49 16 -32 0 -75 -32 -90 -16 -7 -89 -11 -195
-11 -165 0 -202 6 -221 34 -4 6 -8 98 -8 203 l0 193 -42 21 c-60 31 -137 114
-170 186 -81 173 -53 356 77 492 112 118 262 164 415 128z m98 -1367 c80 0 82
-1 82 -24 0 -49 -112 -124 -208 -141 -82 -14 -212 47 -247 116 -28 53 -5 60
165 54 69 -3 162 -5 208 -5z"/>
<path d="M3081 3544 c-140 -70 -170 -252 -61 -362 146 -146 391 -45 390 160
-1 171 -176 278 -329 202z"/>
<path d="M445 3503 c-122 -44 -223 -135 -278 -250 -30 -65 -32 -74 -32 -188 0
-117 1 -122 36 -195 139 -291 512 -357 739 -130 40 40 70 83 92 130 l33 70
287 0 c285 0 288 0 288 21 0 16 7 12 33 -23 66 -86 168 -129 265 -109 97 19
159 68 208 161 27 52 24 161 -5 223 -43 89 -150 157 -246 157 -85 0 -197 -64
-234 -134 l-14 -26 -297 0 -296 0 -29 60 c-40 83 -120 162 -213 208 -71 34
-82 37 -181 40 -82 2 -117 -2 -156 -15z m218 -267 c70 -29 126 -129 112 -199
-32 -150 -200 -212 -311 -115 -47 42 -64 77 -64 137 0 115 71 190 183 191 26
0 62 -6 80 -14z"/>
<path d="M1779 2654 c-25 -7 -66 -32 -91 -54 l-46 -40 -274 0 c-335 -1 -483
-11 -559 -40 -103 -38 -183 -128 -216 -242 -14 -48 -28 -411 -32 -794 l-1 -82
-55 -27 c-199 -97 -301 -334 -235 -546 25 -82 54 -128 119 -194 261 -263 716
-109 773 263 31 196 -72 386 -257 478 l-76 37 6 331 c3 182 8 359 11 394 11
147 3 144 425 150 l335 5 18 -29 c72 -113 193 -164 309 -130 74 21 133 69 171
136 80 143 1 338 -157 385 -62 18 -107 18 -168 -1z m-996 -1518 c41 -17 91
-74 107 -121 45 -137 -98 -280 -235 -235 -47 16 -104 66 -121 107 -29 68 -9
170 42 214 55 48 142 63 207 35z"/>
<path d="M4449 2654 c-59 -18 -131 -81 -160 -141 -17 -36 -23 -66 -23 -118 0
-61 4 -78 30 -125 107 -191 360 -195 479 -7 l17 27 287 0 c157 -1 330 -5 384
-9 87 -7 101 -11 125 -34 25 -26 26 -30 33 -199 4 -95 9 -278 10 -406 l4 -233
-63 -30 c-118 -57 -220 -177 -252 -297 -17 -67 -14 -189 8 -258 67 -216 292
-354 511 -315 303 54 470 371 341 649 -39 84 -126 174 -206 213 l-62 31 -6 71
c-3 40 -8 222 -11 405 -7 348 -12 398 -56 483 -43 86 -142 157 -247 180 -70
15 -802 24 -811 10 -5 -7 -26 7 -58 38 -78 75 -171 97 -274 65z m1428 -1541
c54 -43 76 -85 76 -146 1 -61 -29 -125 -70 -155 -97 -69 -221 -45 -279 53 -42
73 -32 175 24 228 48 46 82 58 149 55 52 -3 69 -9 100 -35z"/>
<path d="M2793 1700 c-49 -11 -119 -57 -149 -95 l-26 -35 -272 0 c-293 0 -343
-7 -413 -55 -83 -56 -113 -136 -113 -302 0 -99 -2 -114 -17 -119 -194 -64
-323 -240 -323 -439 0 -347 361 -567 672 -409 121 61 219 201 241 343 28 187
-73 385 -241 470 l-62 31 0 105 0 105 264 0 264 0 26 -35 c36 -47 118 -93 182
-101 106 -13 224 51 277 150 31 58 31 184 0 242 -59 111 -191 173 -310 144z
m-749 -890 c53 -36 91 -116 82 -177 -21 -155 -196 -223 -313 -120 -44 39 -63
82 -63 142 0 73 36 131 105 169 45 25 142 17 189 -14z"/>
<path d="M3464 1692 c-192 -67 -247 -307 -103 -451 138 -139 378 -83 445 104
l11 30 7 -37 7 -37 430 -3 c369 -3 431 -5 439 -18 5 -8 10 -54 10 -101 l0 -85
-56 -24 c-109 -45 -221 -177 -254 -299 -18 -67 -14 -187 8 -257 80 -257 370
-390 619 -283 303 130 372 530 129 756 -38 36 -86 69 -118 83 l-55 23 -6 121
c-3 72 -12 140 -22 168 -19 54 -70 110 -127 139 -85 43 -148 49 -590 49 l-418
0 -1 -37 -1 -38 -11 30 c-34 87 -95 144 -183 171 -61 18 -97 17 -160 -4z
m1453 -863 c104 -39 148 -172 90 -272 -20 -33 -41 -52 -79 -71 -65 -33 -101
-33 -166 0 -55 27 -89 70 -103 132 -18 77 37 182 111 211 34 13 112 13 147 0z"/>
</g>
</svg>
